<svg xmlns="http://www.w3.org/2000/svg" width="21" height="21" viewBox="0 0 21 21" fill="none">
  <path d="M10.5 1.96875C8.81268 1.96875 7.16325 2.4691 5.7603 3.40653C4.35734 4.34395 3.26387 5.67635 2.61816 7.23523C1.97245 8.79411 1.8035 10.5095 2.13268 12.1644C2.46186 13.8193 3.27438 15.3394 4.4675 16.5325C5.66062 17.7256 7.18074 18.5381 8.83564 18.8673C10.4905 19.1965 12.2059 19.0276 13.7648 18.3818C15.3237 17.7361 16.6561 16.6427 17.5935 15.2397C18.5309 13.8368 19.0313 12.1873 19.0313 10.5C19.0289 8.23811 18.1293 6.06954 16.5299 4.47013C14.9305 2.87073 12.7619 1.97114 10.5 1.96875ZM6.07688 16.2012C6.55162 15.4587 7.20563 14.8477 7.97863 14.4244C8.75162 14.0012 9.61872 13.7793 10.5 13.7793C11.3813 13.7793 12.2484 14.0012 13.0214 14.4244C13.7944 14.8477 14.4484 15.4587 14.9231 16.2012C13.6585 17.1847 12.1021 17.7187 10.5 17.7187C8.89792 17.7187 7.34153 17.1847 6.07688 16.2012ZM7.875 9.84375C7.875 9.32457 8.02896 8.81706 8.3174 8.38538C8.60584 7.9537 9.0158 7.61725 9.49546 7.41857C9.97512 7.21989 10.5029 7.1679 11.0121 7.26919C11.5213 7.37048 11.989 7.62048 12.3562 7.9876C12.7233 8.35471 12.9733 8.82244 13.0746 9.33164C13.1759 9.84084 13.1239 10.3686 12.9252 10.8483C12.7265 11.328 12.3901 11.7379 11.9584 12.0264C11.5267 12.3148 11.0192 12.4688 10.5 12.4688C9.80381 12.4688 9.13613 12.1922 8.64385 11.6999C8.15157 11.2076 7.875 10.5399 7.875 9.84375ZM15.8944 15.2914C15.1625 14.2308 14.1333 13.4103 12.9363 12.933C13.5793 12.4266 14.0485 11.7324 14.2786 10.947C14.5088 10.1615 14.4884 9.32391 14.2205 8.55057C13.9525 7.77722 13.4502 7.1066 12.7834 6.63197C12.1166 6.15734 11.3185 5.90229 10.5 5.90229C9.68154 5.90229 8.88342 6.15734 8.21663 6.63197C7.54984 7.1066 7.04753 7.77722 6.77955 8.55057C6.51156 9.32391 6.49123 10.1615 6.72138 10.947C6.95152 11.7324 7.4207 12.4266 8.06368 12.933C6.86669 13.4103 5.83754 14.2308 5.10563 15.2914C4.18078 14.2514 3.5763 12.9662 3.36496 11.5906C3.15363 10.215 3.34446 8.80761 3.91447 7.53793C4.48448 6.26826 5.40937 5.19043 6.57777 4.43423C7.74616 3.67803 9.10825 3.27571 10.5 3.27571C11.8918 3.27571 13.2538 3.67803 14.4222 4.43423C15.5906 5.19043 16.5155 6.26826 17.0855 7.53793C17.6556 8.80761 17.8464 10.215 17.635 11.5906C17.4237 12.9662 16.8192 14.2514 15.8944 15.2914Z" fill="#696F79"/>
</svg>