<svg xmlns="http://www.w3.org/2000/svg" width="21" height="21" viewBox="0 0 21 21" fill="none">
  <path d="M9.1875 17.7188C9.1875 17.8928 9.11836 18.0597 8.99529 18.1828C8.87222 18.3059 8.7053 18.375 8.53125 18.375H3.9375C3.5894 18.375 3.25556 18.2367 3.00942 17.9906C2.76328 17.7444 2.625 17.4106 2.625 17.0625V3.9375C2.625 3.5894 2.76328 3.25556 3.00942 3.00942C3.25556 2.76328 3.5894 2.625 3.9375 2.625H8.53125C8.7053 2.625 8.87222 2.69414 8.99529 2.81721C9.11836 2.94028 9.1875 3.1072 9.1875 3.28125C9.1875 3.4553 9.11836 3.62222 8.99529 3.74529C8.87222 3.86836 8.7053 3.9375 8.53125 3.9375H3.9375V17.0625H8.53125C8.7053 17.0625 8.87222 17.1316 8.99529 17.2547C9.11836 17.3778 9.1875 17.5447 9.1875 17.7188ZM18.183 10.0357L14.9018 6.75445C14.7787 6.63131 14.6116 6.56214 14.4375 6.56214C14.2634 6.56214 14.0963 6.63131 13.9732 6.75445C13.8501 6.87759 13.7809 7.0446 13.7809 7.21875C13.7809 7.3929 13.8501 7.55991 13.9732 7.68305L16.1347 9.84375H8.53125C8.3572 9.84375 8.19028 9.91289 8.06721 10.036C7.94414 10.159 7.875 10.326 7.875 10.5C7.875 10.674 7.94414 10.841 8.06721 10.964C8.19028 11.0871 8.3572 11.1562 8.53125 11.1562H16.1347L13.9732 13.317C13.8501 13.4401 13.7809 13.6071 13.7809 13.7812C13.7809 13.9554 13.8501 14.1224 13.9732 14.2455C14.0963 14.3687 14.2634 14.4379 14.4375 14.4379C14.6116 14.4379 14.7787 14.3687 14.9018 14.2455L18.183 10.9643C18.2441 10.9033 18.2925 10.831 18.3255 10.7513C18.3585 10.6716 18.3755 10.5862 18.3755 10.5C18.3755 10.4138 18.3585 10.3284 18.3255 10.2487C18.2925 10.169 18.2441 10.0967 18.183 10.0357Z" fill="#F56342"/>
</svg>