<svg xmlns="http://www.w3.org/2000/svg" width="22" height="21" viewBox="0 0 22 21" fill="none">
  <path d="M19.4027 11.6672C19.3185 11.5828 19.2129 11.523 19.0973 11.4941C18.9817 11.4652 18.8604 11.4683 18.7464 11.5031C17.4951 11.8814 16.1646 11.9131 14.8966 11.5949C13.6287 11.2767 12.4709 10.6204 11.5465 9.69603C10.6221 8.77165 9.96585 7.61381 9.64761 6.34588C9.32937 5.07795 9.36109 3.74743 9.73939 2.4961C9.77449 2.38208 9.77786 2.26064 9.74911 2.14485C9.72036 2.02906 9.66059 1.9233 9.57623 1.83894C9.49187 1.75458 9.38611 1.69481 9.27032 1.66606C9.15453 1.63732 9.03309 1.64068 8.91907 1.67579C7.18906 2.20575 5.67026 3.26784 4.5788 4.71094C3.62429 5.97821 3.04207 7.48653 2.89754 9.06645C2.75301 10.6464 3.0519 12.2353 3.76063 13.6547C4.46935 15.0741 5.55984 16.2678 6.90958 17.1016C8.25932 17.9354 9.81482 18.3764 11.4013 18.3749C13.2522 18.3806 15.0539 17.7789 16.5299 16.6621C17.973 15.5706 19.0351 14.0518 19.5651 12.3218C19.5998 12.2082 19.603 12.0873 19.5744 11.972C19.5458 11.8568 19.4864 11.7514 19.4027 11.6672ZM15.7408 15.6137C14.3508 16.6607 12.6294 17.1702 10.8935 17.0487C9.15762 16.9271 7.52405 16.1826 6.29353 14.9522C5.06301 13.7218 4.31836 12.0883 4.19667 10.3524C4.07498 8.6165 4.58444 6.89508 5.63126 5.50501C6.31327 4.60435 7.19499 3.87426 8.20704 3.37219C8.14939 3.77679 8.12033 4.18495 8.12009 4.59364C8.12248 6.85553 9.02207 9.0241 10.6215 10.6235C12.2209 12.2229 14.3894 13.1225 16.6513 13.1249C17.0608 13.1248 17.4698 13.0957 17.8752 13.0379C17.3727 14.0502 16.642 14.9319 15.7408 15.6137Z" fill="#696F79"/>
</svg>