<svg xmlns="http://www.w3.org/2000/svg" width="21" height="21" viewBox="0 0 21 21" fill="none">
  <path d="M19.6178 17.4251L15.024 8.23758C14.9695 8.12859 14.8857 8.03693 14.7821 7.97287C14.6784 7.90881 14.5589 7.87488 14.4371 7.87488C14.3152 7.87488 14.1958 7.90881 14.0921 7.97287C13.9884 8.03693 13.9047 8.12859 13.8502 8.23758L12.0693 11.8002C10.6733 11.7217 9.33023 11.2395 8.20312 10.4122C9.52554 9.00003 10.3268 7.17905 10.4746 5.25H12.4688C12.6428 5.25 12.8097 5.18086 12.9328 5.05779C13.0559 4.93472 13.125 4.7678 13.125 4.59375C13.125 4.4197 13.0559 4.25278 12.9328 4.12971C12.8097 4.00664 12.6428 3.9375 12.4688 3.9375H7.875V2.625C7.875 2.45095 7.80586 2.28403 7.68279 2.16096C7.55972 2.03789 7.3928 1.96875 7.21875 1.96875C7.0447 1.96875 6.87778 2.03789 6.75471 2.16096C6.63164 2.28403 6.5625 2.45095 6.5625 2.625V3.9375H1.96875C1.7947 3.9375 1.62778 4.00664 1.50471 4.12971C1.38164 4.25278 1.3125 4.4197 1.3125 4.59375C1.3125 4.7678 1.38164 4.93472 1.50471 5.05779C1.62778 5.18086 1.7947 5.25 1.96875 5.25H9.15715C9.01098 6.85835 8.32827 8.37083 7.21875 9.54434C6.52736 8.81481 5.99643 7.94855 5.66016 7.00137C5.63251 6.91873 5.58867 6.84242 5.53122 6.7769C5.47376 6.71138 5.40383 6.65796 5.3255 6.61976C5.24718 6.58156 5.16203 6.55934 5.07503 6.5544C4.98802 6.54946 4.90091 6.56189 4.81876 6.59098C4.73661 6.62007 4.66108 6.66523 4.59658 6.72382C4.53207 6.78241 4.47988 6.85327 4.44305 6.93225C4.40622 7.01123 4.38549 7.09675 4.38207 7.18383C4.37865 7.2709 4.39261 7.35779 4.42312 7.43941C4.81463 8.54673 5.43135 9.5609 6.23438 10.418C4.99797 11.3265 3.50308 11.8152 1.96875 11.8125C1.7947 11.8125 1.62778 11.8816 1.50471 12.0047C1.38164 12.1278 1.3125 12.2947 1.3125 12.4688C1.3125 12.6428 1.38164 12.8097 1.50471 12.9328C1.62778 13.0559 1.7947 13.125 1.96875 13.125C3.87236 13.1271 5.7214 12.4892 7.21875 11.3138C8.44067 12.2685 9.89933 12.8728 11.4384 13.0618L9.25641 17.4251C9.17852 17.5807 9.16566 17.761 9.22066 17.9261C9.27565 18.0913 9.394 18.2278 9.54967 18.3057C9.70533 18.3836 9.88556 18.3964 10.0507 18.3414C10.2159 18.2864 10.3524 18.1681 10.4303 18.0124L11.5615 15.75H17.3127L18.4439 18.0124C18.4985 18.1215 18.5823 18.2131 18.6861 18.2772C18.7898 18.3412 18.9093 18.3751 19.0312 18.375C19.1431 18.3749 19.2531 18.3463 19.3507 18.2918C19.4484 18.2373 19.5305 18.1587 19.5893 18.0635C19.648 17.9684 19.6815 17.8597 19.6865 17.748C19.6915 17.6363 19.6678 17.5251 19.6178 17.4251ZM12.2177 14.4375L14.4375 9.99879L16.6564 14.4375H12.2177Z" fill="#696F79"/>
</svg>