<svg xmlns="http://www.w3.org/2000/svg" width="23" height="22" viewBox="0 0 23 22" fill="none">
  <path d="M20.5161 7.34432C20.3874 7.19734 20.2289 7.07947 20.051 6.99856C19.8732 6.91765 19.6802 6.87557 19.4848 6.87511H16.3593L11.7505 1.60971C11.6859 1.53656 11.6066 1.47797 11.5177 1.43784C11.4288 1.39771 11.3324 1.37695 11.2348 1.37695C11.1373 1.37695 11.0409 1.39771 10.952 1.43784C10.8631 1.47797 10.7837 1.53656 10.7192 1.60971L6.11039 6.87511H2.98484C2.78896 6.87511 2.59534 6.91696 2.41695 6.99787C2.23856 7.07877 2.07951 7.19686 1.95046 7.34422C1.82141 7.49158 1.72533 7.66481 1.66866 7.85231C1.61199 8.03982 1.59604 8.23726 1.62187 8.43143L2.81297 17.3698C2.85713 17.7001 3.01976 18.0032 3.27063 18.2226C3.5215 18.442 3.84352 18.5628 4.17679 18.5626H18.2929C18.6262 18.5628 18.9482 18.442 19.1991 18.2226C19.4499 18.0032 19.6126 17.7001 19.6567 17.3698L20.8487 8.43229C20.8741 8.23772 20.8575 8.03995 20.8002 7.8523C20.7428 7.66464 20.6459 7.49144 20.5161 7.34432ZM7.24734 15.8126C7.22415 15.8139 7.20092 15.8139 7.17773 15.8126C7.0067 15.8135 6.8415 15.7505 6.71437 15.6361C6.58725 15.5217 6.50733 15.364 6.49023 15.1939L6.00898 10.3814C5.99075 10.1999 6.04533 10.0187 6.16073 9.87751C6.27612 9.73633 6.44287 9.64678 6.62429 9.62854C6.80572 9.61031 6.98696 9.66489 7.12814 9.78029C7.26932 9.89568 7.35887 10.0624 7.37711 10.2439L7.85836 15.0564C7.87761 15.2377 7.82405 15.4192 7.70947 15.561C7.59488 15.7028 7.42865 15.7933 7.24734 15.8126ZM11.9223 15.1251C11.9223 15.3074 11.8499 15.4823 11.721 15.6112C11.592 15.7402 11.4172 15.8126 11.2348 15.8126C11.0525 15.8126 10.8776 15.7402 10.7487 15.6112C10.6198 15.4823 10.5473 15.3074 10.5473 15.1251V10.3126C10.5473 10.1303 10.6198 9.9554 10.7487 9.82647C10.8776 9.69754 11.0525 9.62511 11.2348 9.62511C11.4172 9.62511 11.592 9.69754 11.721 9.82647C11.8499 9.9554 11.9223 10.1303 11.9223 10.3126V15.1251ZM7.93742 6.87511L11.2348 3.10675L14.5323 6.87511H7.93742ZM16.4564 10.3814L15.9752 15.1939C15.9581 15.3633 15.8788 15.5204 15.7526 15.6347C15.6264 15.749 15.4622 15.8124 15.292 15.8126C15.2688 15.8139 15.2455 15.8139 15.2223 15.8126C15.1325 15.8036 15.0453 15.7769 14.9658 15.7342C14.8863 15.6915 14.8159 15.6335 14.7588 15.5636C14.7016 15.4937 14.6588 15.4133 14.6328 15.3268C14.6068 15.2404 14.598 15.1496 14.607 15.0598L15.0883 10.2473C15.1065 10.0659 15.1961 9.89912 15.3372 9.78372C15.4784 9.66833 15.6597 9.61375 15.8411 9.63198C16.0225 9.65021 16.1893 9.73977 16.3047 9.88095C16.4201 10.0221 16.4746 10.2034 16.4564 10.3848V10.3814Z" fill="#696F79"/>
</svg>