<svg xmlns="http://www.w3.org/2000/svg" width="23" height="22" viewBox="0 0 23 22" fill="none">
  <path d="M11.429 2.0625C9.66129 2.0625 7.93331 2.58668 6.46355 3.56874C4.99379 4.55081 3.84824 5.94665 3.17179 7.57977C2.49533 9.21288 2.31834 11.0099 2.66319 12.7436C3.00805 14.4773 3.85926 16.0698 5.10919 17.3198C6.35912 18.5697 7.95163 19.4209 9.68534 19.7658C11.419 20.1106 13.2161 19.9336 14.8492 19.2572C16.4823 18.5807 17.8782 17.4352 18.8602 15.9654C19.8423 14.4956 20.3665 12.7677 20.3665 11C20.364 8.6304 19.4215 6.35856 17.746 4.683C16.0704 3.00743 13.7986 2.065 11.429 2.0625ZM16.2415 11.6875H11.429C11.2466 11.6875 11.0718 11.6151 10.9428 11.4861C10.8139 11.3572 10.7415 11.1823 10.7415 11V6.1875C10.7415 6.00516 10.8139 5.8303 10.9428 5.70136C11.0718 5.57243 11.2466 5.5 11.429 5.5C11.6113 5.5 11.7862 5.57243 11.9151 5.70136C12.044 5.8303 12.1165 6.00516 12.1165 6.1875V10.3125H16.2415C16.4238 10.3125 16.5987 10.3849 16.7276 10.5139C16.8565 10.6428 16.929 10.8177 16.929 11C16.929 11.1823 16.8565 11.3572 16.7276 11.4861C16.5987 11.6151 16.4238 11.6875 16.2415 11.6875Z" fill="#696F79"/>
</svg>