<svg xmlns="http://www.w3.org/2000/svg" width="23" height="22" viewBox="0 0 23 22" fill="none">
  <g clip-path="url(#clip0_11_446)">
    <path d="M14.4561 16.8118C14.5237 16.9156 14.5621 17.0357 14.5672 17.1594C14.5722 17.2831 14.5437 17.4059 14.4847 17.5148C14.4258 17.6237 14.3385 17.7147 14.2321 17.778C14.1257 17.8414 14.0041 17.8749 13.8803 17.8749H1.20109C1.07725 17.8749 0.955712 17.8414 0.84932 17.778C0.742928 17.7147 0.65563 17.6237 0.59665 17.5148C0.53767 17.4059 0.509198 17.2831 0.514243 17.1594C0.519287 17.0357 0.557659 16.9156 0.625307 16.8118C1.59305 15.3222 3.01651 14.1855 4.68328 13.5711C3.76185 12.9577 3.0623 12.064 2.68806 11.0223C2.31383 9.98052 2.28478 8.84598 2.60521 7.78644C2.92565 6.72689 3.57855 5.79859 4.46738 5.13881C5.3562 4.47903 6.43376 4.1228 7.5407 4.1228C8.64764 4.1228 9.72519 4.47903 10.614 5.13881C11.5028 5.79859 12.1557 6.72689 12.4762 7.78644C12.7966 8.84598 12.7676 9.98052 12.3933 11.0223C12.0191 12.064 11.3195 12.9577 10.3981 13.5711C12.0649 14.1855 13.4883 15.3222 14.4561 16.8118ZM22.0109 16.799C21.0429 15.3156 19.6226 14.1837 17.9606 13.5711C19.0484 12.8384 19.8161 11.7187 20.1074 10.4399C20.3987 9.16108 20.1917 7.81933 19.5286 6.68775C18.8656 5.55616 17.7962 4.71979 16.5381 4.34887C15.2801 3.97796 13.928 4.10038 12.7571 4.69122C12.7123 4.71434 12.6732 4.74702 12.6424 4.78695C12.6117 4.82688 12.5901 4.87307 12.5792 4.92227C12.5683 4.97147 12.5683 5.02246 12.5793 5.07164C12.5903 5.12081 12.612 5.16697 12.6428 5.20685C13.5135 6.29293 14.0135 7.62929 14.0697 9.02016C14.1258 10.411 13.7351 11.7833 12.9548 12.9361C12.9043 13.0114 12.8857 13.1036 12.9029 13.1926C12.9201 13.2816 12.9718 13.3602 13.0467 13.4113C14.0641 14.1214 14.9351 15.0209 15.6119 16.0608C15.8849 16.4788 15.9964 16.9819 15.9256 17.4761C15.9177 17.5253 15.9205 17.5756 15.9339 17.6236C15.9472 17.6716 15.9709 17.716 16.0032 17.754C16.0355 17.7919 16.0756 17.8224 16.1208 17.8432C16.1661 17.8641 16.2153 17.8749 16.2651 17.8749H21.4471C21.5985 17.8749 21.7457 17.825 21.8658 17.7329C21.9859 17.6407 22.0722 17.5115 22.1114 17.3653C22.1353 17.2691 22.1387 17.169 22.1214 17.0714C22.1041 16.9739 22.0664 16.881 22.0109 16.799Z" fill="#696F79"/>
  </g>
  <defs>
    <clipPath id="clip0_11_446">
      <rect width="22" height="22" fill="white" transform="translate(0.322021)"/>
    </clipPath>
  </defs>
</svg>