<svg xmlns="http://www.w3.org/2000/svg" width="22" height="22" viewBox="0 0 22 22" fill="none">
  <path d="M11 2.0625C9.23233 2.0625 7.50436 2.58668 6.0346 3.56874C4.56483 4.55081 3.41929 5.94665 2.74283 7.57977C2.06637 9.21288 1.88938 11.0099 2.23424 12.7436C2.57909 14.4773 3.43031 16.0698 4.68024 17.3198C5.93017 18.5697 7.52268 19.4209 9.25638 19.7658C10.9901 20.1106 12.7871 19.9336 14.4202 19.2572C16.0534 18.5807 17.4492 17.4352 18.4313 15.9654C19.4133 14.4956 19.9375 12.7677 19.9375 11C19.935 8.6304 18.9926 6.35856 17.317 4.683C15.6414 3.00743 13.3696 2.065 11 2.0625ZM12.0313 15.125H11.6875V15.8125C11.6875 15.9948 11.6151 16.1697 11.4861 16.2986C11.3572 16.4276 11.1823 16.5 11 16.5C10.8177 16.5 10.6428 16.4276 10.5139 16.2986C10.3849 16.1697 10.3125 15.9948 10.3125 15.8125V15.125H8.9375C8.75517 15.125 8.5803 15.0526 8.45137 14.9236C8.32244 14.7947 8.25 14.6198 8.25 14.4375C8.25 14.2552 8.32244 14.0803 8.45137 13.9514C8.5803 13.8224 8.75517 13.75 8.9375 13.75H12.0313C12.3048 13.75 12.5671 13.6413 12.7605 13.448C12.9539 13.2546 13.0625 12.9923 13.0625 12.7188C13.0625 12.4452 12.9539 12.1829 12.7605 11.9895C12.5671 11.7962 12.3048 11.6875 12.0313 11.6875H9.96875C9.33058 11.6875 8.71854 11.434 8.26728 10.9827C7.81602 10.5315 7.5625 9.91943 7.5625 9.28125C7.5625 8.64307 7.81602 8.03103 8.26728 7.57977C8.71854 7.12852 9.33058 6.875 9.96875 6.875H10.3125V6.1875C10.3125 6.00516 10.3849 5.8303 10.5139 5.70136C10.6428 5.57243 10.8177 5.5 11 5.5C11.1823 5.5 11.3572 5.57243 11.4861 5.70136C11.6151 5.8303 11.6875 6.00516 11.6875 6.1875V6.875H13.0625C13.2448 6.875 13.4197 6.94743 13.5486 7.07636C13.6776 7.2053 13.75 7.38016 13.75 7.5625C13.75 7.74484 13.6776 7.9197 13.5486 8.04864C13.4197 8.17757 13.2448 8.25 13.0625 8.25H9.96875C9.69525 8.25 9.43295 8.35865 9.23955 8.55205C9.04615 8.74544 8.9375 9.00775 8.9375 9.28125C8.9375 9.55475 9.04615 9.81706 9.23955 10.0105C9.43295 10.2039 9.69525 10.3125 9.96875 10.3125H12.0313C12.6694 10.3125 13.2815 10.566 13.7327 11.0173C14.184 11.4685 14.4375 12.0806 14.4375 12.7188C14.4375 13.3569 14.184 13.969 13.7327 14.4202C13.2815 14.8715 12.6694 15.125 12.0313 15.125Z" fill="#696F79"/>
</svg>