<svg xmlns="http://www.w3.org/2000/svg" width="23" height="22" viewBox="0 0 23 22" fill="none">
  <path d="M15.8108 14.7812C15.8108 14.9852 15.7503 15.1846 15.637 15.3542C15.5237 15.5238 15.3626 15.6559 15.1742 15.734C14.9857 15.8121 14.7784 15.8325 14.5784 15.7927C14.3783 15.7529 14.1946 15.6547 14.0503 15.5105C13.9061 15.3662 13.8079 15.1825 13.7681 14.9824C13.7283 14.7824 13.7487 14.575 13.8268 14.3866C13.9048 14.1982 14.037 14.0371 14.2066 13.9238C14.3762 13.8105 14.5756 13.75 14.7795 13.75C15.053 13.75 15.3153 13.8587 15.5087 14.052C15.7021 14.2454 15.8108 14.5077 15.8108 14.7812ZM8.59204 8.25C8.796 8.25 8.99538 8.18952 9.16497 8.0762C9.33456 7.96289 9.46674 7.80183 9.54479 7.61339C9.62284 7.42496 9.64327 7.21761 9.60348 7.01756C9.56368 6.81752 9.46547 6.63377 9.32125 6.48955C9.17702 6.34532 8.99327 6.24711 8.79323 6.20731C8.59319 6.16752 8.38584 6.18795 8.1974 6.266C8.00896 6.34405 7.8479 6.47623 7.73459 6.64582C7.62127 6.81541 7.56079 7.01479 7.56079 7.21875C7.56079 7.49225 7.66944 7.75456 7.86284 7.94795C8.05623 8.14135 8.31854 8.25 8.59204 8.25ZM19.9358 4.125V17.875C19.9358 18.2397 19.7909 18.5894 19.5331 18.8473C19.2752 19.1051 18.9255 19.25 18.5608 19.25H4.81079C4.44612 19.25 4.09638 19.1051 3.83852 18.8473C3.58066 18.5894 3.43579 18.2397 3.43579 17.875V4.125C3.43579 3.76033 3.58066 3.41059 3.83852 3.15273C4.09638 2.89487 4.44612 2.75 4.81079 2.75H18.5608C18.9255 2.75 19.2752 2.89487 19.5331 3.15273C19.7909 3.41059 19.9358 3.76033 19.9358 4.125ZM6.18579 7.21875C6.18579 7.69466 6.32692 8.15989 6.59132 8.55559C6.85572 8.9513 7.23152 9.25971 7.67121 9.44184C8.11089 9.62396 8.59471 9.67161 9.06148 9.57876C9.52824 9.48592 9.957 9.25675 10.2935 8.92023C10.63 8.58371 10.8592 8.15495 10.9521 7.68819C11.0449 7.22142 10.9972 6.7376 10.8151 6.29792C10.633 5.85823 10.3246 5.48243 9.92888 5.21803C9.53318 4.95362 9.06795 4.8125 8.59204 4.8125C7.95386 4.8125 7.34182 5.06602 6.89057 5.51727C6.43931 5.96853 6.18579 6.58057 6.18579 7.21875ZM17.1858 14.7812C17.1858 14.3053 17.0447 13.8401 16.7803 13.4444C16.5159 13.0487 16.1401 12.7403 15.7004 12.5582C15.2607 12.376 14.7769 12.3284 14.3101 12.4212C13.8433 12.5141 13.4146 12.7433 13.0781 13.0798C12.7415 13.4163 12.5124 13.845 12.4195 14.3118C12.3267 14.7786 12.3743 15.2624 12.5565 15.7021C12.7386 16.1418 13.047 16.5176 13.4427 16.782C13.8384 17.0464 14.3036 17.1875 14.7795 17.1875C15.4177 17.1875 16.0298 16.934 16.481 16.4827C16.9323 16.0315 17.1858 15.4194 17.1858 14.7812ZM16.9847 5.70109C16.9208 5.63717 16.845 5.58646 16.7616 5.55187C16.6781 5.51727 16.5886 5.49946 16.4983 5.49946C16.4079 5.49946 16.3185 5.51727 16.235 5.55187C16.1516 5.58646 16.0757 5.63717 16.0119 5.70109L6.38688 15.3261C6.25788 15.4551 6.18541 15.6301 6.18541 15.8125C6.18541 15.9949 6.25788 16.1699 6.38688 16.2989C6.51589 16.4279 6.69085 16.5004 6.87329 16.5004C7.05573 16.5004 7.23069 16.4279 7.3597 16.2989L16.9847 6.67391C17.0486 6.61006 17.0993 6.53423 17.1339 6.45077C17.1685 6.36731 17.1863 6.27785 17.1863 6.1875C17.1863 6.09715 17.1685 6.00769 17.1339 5.92423C17.0993 5.84077 17.0486 5.76494 16.9847 5.70109Z" fill="#696F79"/>
</svg>