<svg xmlns="http://www.w3.org/2000/svg" width="43" height="43" viewBox="0 0 43 43" fill="none">
  <rect x="0.472656" width="42.5275" height="42.5275" rx="5" fill="#F2F2F2"/>
  <path d="M15.6418 20.1587C15.6418 17.1384 15.6418 15.6283 16.5801 14.69C17.5184 13.7517 19.0286 13.7517 22.0489 13.7517H25.2524C28.2727 13.7517 29.7828 13.7517 30.7211 14.69C31.6594 15.6283 31.6594 17.1384 31.6594 20.1587V25.4979C31.6594 28.5182 31.6594 30.0283 30.7211 30.9666C29.7828 31.9049 28.2727 31.905 25.2524 31.905H22.0489C19.0286 31.905 17.5184 31.9049 16.5801 30.9666C15.6418 30.0283 15.6418 28.5182 15.6418 25.4979V20.1587Z" stroke="#4F4F4F" stroke-width="2.3"/>
  <path d="M15.0167 28.0763C13.2475 28.0763 11.8132 26.6421 11.8132 24.8728V18.4658C11.8132 14.4387 11.8132 12.4252 13.0643 11.1741C14.3153 9.9231 16.3289 9.9231 20.3559 9.9231H24.6273C26.3966 9.9231 27.8308 11.3574 27.8308 13.1266" stroke="#4F4F4F" stroke-width="2.3"/>
</svg>