<svg xmlns="http://www.w3.org/2000/svg" width="44" height="43" viewBox="0 0 44 43" fill="none">
  <path d="M36.7507 0H7.51308C3.8432 0 0.868164 2.97503 0.868164 6.64492V35.8826C0.868164 39.5524 3.8432 42.5275 7.51308 42.5275H36.7507C40.4206 42.5275 43.3956 39.5524 43.3956 35.8826V6.64492C43.3956 2.97503 40.4206 0 36.7507 0Z" fill="#1877F2"/>
  <path d="M32.7637 21.2637C32.7637 15.4162 27.9794 10.6318 22.1319 10.6318C16.2843 10.6318 11.5 15.4162 11.5 21.2637C11.5 26.5796 15.3541 30.9653 20.4042 31.7627V24.3204H17.7462V21.2637H20.4042V18.8715C20.4042 16.2136 21.999 14.7517 24.3911 14.7517C25.5872 14.7517 26.7833 15.0175 26.7833 15.0175V17.6754H25.4543C24.1253 17.6754 23.7266 18.4728 23.7266 19.2702V21.2637H26.6504L26.1188 24.3204H23.5938V31.8956C28.9097 31.0982 32.7637 26.5796 32.7637 21.2637Z" fill="white"/>
</svg>