<svg xmlns="http://www.w3.org/2000/svg" width="43" height="43" viewBox="0 0 43 43" fill="none">
  <path d="M35.8826 0H6.64492C2.97503 0 0 2.97503 0 6.64492V35.8826C0 39.5524 2.97503 42.5275 6.64492 42.5275H35.8826C39.5524 42.5275 42.5275 39.5524 42.5275 35.8826V6.64492C42.5275 2.97503 39.5524 0 35.8826 0Z" fill="#2867B2"/>
  <path d="M15.4162 31.8956H10.8976V17.6754H15.4162V31.8956ZM13.1569 15.682C11.695 15.682 10.6318 14.6188 10.6318 13.1569C10.6318 11.695 11.8279 10.6318 13.1569 10.6318C14.6188 10.6318 15.682 11.695 15.682 13.1569C15.682 14.6188 14.6188 15.682 13.1569 15.682ZM31.8956 31.8956H27.377V24.1875C27.377 21.9282 26.4467 21.2637 25.1177 21.2637C23.7888 21.2637 22.4598 22.3269 22.4598 24.3204V31.8956H17.9412V17.6754H22.194V19.6689C22.5927 18.7386 24.1875 17.2768 26.4467 17.2768C28.9718 17.2768 31.6298 18.7386 31.6298 23.1243V31.8956H31.8956Z" fill="white"/>
</svg>