<svg xmlns="http://www.w3.org/2000/svg" width="44" height="43" viewBox="0 0 44 43" fill="none">
  <path d="M36.487 0H7.24941C3.57952 0 0.604492 2.97503 0.604492 6.64492V35.8826C0.604492 39.5524 3.57952 42.5275 7.24941 42.5275H36.487C40.1569 42.5275 43.132 39.5524 43.132 35.8826V6.64492C43.132 2.97503 40.1569 0 36.487 0Z" fill="#1DA1F2"/>
  <path d="M32.5001 14.6187C31.7027 15.0174 30.9053 15.1503 29.975 15.2832C30.9053 14.7516 31.5698 13.9542 31.8356 12.891C31.0382 13.4226 30.1079 13.6884 29.0447 13.9542C28.2473 13.1568 27.0512 12.6252 25.8551 12.6252C23.0643 12.6252 20.9379 15.2832 21.6024 17.9412C18.0141 17.8083 14.8246 16.0806 12.5653 13.4226C11.3692 15.4161 12.0337 17.9412 13.8943 19.2702C13.2298 19.2702 12.5653 19.0044 11.9008 18.7386C11.9008 20.732 13.3627 22.5926 15.3562 23.1242C14.6917 23.2571 14.0272 23.39 13.3627 23.2571C13.8943 24.9848 15.4891 26.3138 17.4826 26.3138C15.8878 27.5099 13.4956 28.1744 11.2363 27.9086C13.2298 29.1046 15.4891 29.902 17.8812 29.902C25.988 29.902 30.5066 23.1242 30.2408 16.878C31.1711 16.3464 31.9685 15.549 32.5001 14.6187Z" fill="white"/>
</svg>