<svg xmlns="http://www.w3.org/2000/svg" width="44" height="43" viewBox="0 0 44 43" fill="none">
  <path d="M36.6189 0H7.38125C3.71136 0 0.736328 2.97503 0.736328 6.64492V35.8826C0.736328 39.5524 3.71136 42.5275 7.38125 42.5275H36.6189C40.2888 42.5275 43.2638 39.5524 43.2638 35.8826V6.64492C43.2638 2.97503 40.2888 0 36.6189 0Z" fill="#25D366"/>
  <path fill-rule="evenodd" clip-rule="evenodd" d="M29.4423 13.6885C27.4489 11.695 24.7909 10.6318 22 10.6318C16.1525 10.6318 11.3682 15.4162 11.3682 21.2637C11.3682 23.1243 11.8998 24.9849 12.8301 26.5796L11.3682 31.8956L16.9499 30.4337C18.5447 31.2311 20.2724 31.7627 22 31.7627C27.8476 31.7627 32.6319 26.9783 32.6319 21.1308C32.6319 18.3399 31.4358 15.682 29.4423 13.6885ZM22 30.035C20.4053 30.035 18.8105 29.6363 17.4815 28.8389L17.2157 28.706L13.8932 29.6363L14.8235 26.4467L14.5577 26.048C13.6274 24.5862 13.2287 22.9914 13.2287 21.3966C13.2287 16.6123 17.2157 12.6253 22 12.6253C24.3922 12.6253 26.5186 13.5556 28.2463 15.1504C29.9739 16.8781 30.7713 19.0044 30.7713 21.3966C30.7713 26.048 26.9173 30.035 22 30.035ZM26.7844 23.3901C26.5186 23.2572 25.1896 22.5927 24.9238 22.5927C24.658 22.4598 24.5251 22.4598 24.3922 22.7256C24.2593 22.9914 23.7277 23.523 23.5948 23.7888C23.4619 23.9217 23.329 23.9217 23.0632 23.9217C22.7974 23.7888 22 23.523 20.9369 22.5927C20.1395 21.9282 19.6079 20.9979 19.475 20.7321C19.3421 20.4663 19.475 20.3334 19.6079 20.2005C19.7408 20.0676 19.8737 19.9347 20.0066 19.8018C20.1395 19.6689 20.1395 19.536 20.2724 19.4031C20.4053 19.2702 20.2724 19.1373 20.2724 19.0044C20.2724 18.8715 19.7408 17.5426 19.475 17.011C19.3421 16.6123 19.0763 16.6123 18.9434 16.6123C18.8105 16.6123 18.6776 16.6123 18.4118 16.6123C18.2789 16.6123 18.0131 16.6123 17.7473 16.8781C17.4815 17.1439 16.817 17.8083 16.817 19.1373C16.817 20.4663 17.7473 21.6624 17.8802 21.9282C18.0131 22.0611 19.7407 24.852 22.3987 25.9151C24.658 26.8454 25.0567 26.5796 25.5883 26.5796C26.1199 26.5796 27.1831 25.9151 27.316 25.3836C27.5818 24.7191 27.5818 24.1875 27.4489 24.1875C27.316 23.523 27.0502 23.523 26.7844 23.3901Z" fill="white"/>
</svg>