<svg xmlns="http://www.w3.org/2000/svg" width="30" height="30" viewBox="0 0 30 30" fill="none">
  <g clip-path="url(#clip0_11_365)">
    <path d="M11.25 25.3125C11.25 25.6833 11.14 26.0459 10.934 26.3542C10.728 26.6625 10.4351 26.9029 10.0925 27.0448C9.74992 27.1867 9.37292 27.2238 9.00921 27.1515C8.64549 27.0791 8.3114 26.9005 8.04918 26.6383C7.78695 26.3761 7.60837 26.042 7.53603 25.6783C7.46368 25.3146 7.50081 24.9376 7.64273 24.595C7.78464 24.2524 8.02496 23.9595 8.33331 23.7535C8.64165 23.5475 9.00416 23.4375 9.375 23.4375C9.87228 23.4375 10.3492 23.635 10.7008 23.9867C11.0525 24.3383 11.25 24.8152 11.25 25.3125ZM21.5625 23.4375C21.1917 23.4375 20.8291 23.5475 20.5208 23.7535C20.2125 23.9595 19.9721 24.2524 19.8302 24.595C19.6883 24.9376 19.6512 25.3146 19.7235 25.6783C19.7959 26.042 19.9745 26.3761 20.2367 26.6383C20.4989 26.9005 20.833 27.0791 21.1967 27.1515C21.5604 27.2238 21.9374 27.1867 22.28 27.0448C22.6226 26.9029 22.9155 26.6625 23.1215 26.3542C23.3275 26.0459 23.4375 25.6833 23.4375 25.3125C23.4375 24.8152 23.24 24.3383 22.8883 23.9867C22.5367 23.635 22.0598 23.4375 21.5625 23.4375ZM27.0047 7.88086C26.9175 7.76271 26.8038 7.66669 26.6727 7.60054C26.5416 7.53439 26.3968 7.49995 26.25 7.5H5.6625L4.71211 4.17187C4.59868 3.78087 4.36168 3.43712 4.03656 3.19207C3.71145 2.94702 3.31571 2.81385 2.90859 2.8125H0.9375C0.68886 2.8125 0.450403 2.91127 0.274587 3.08709C0.0987721 3.2629 0 3.50136 0 3.75C0 3.99864 0.0987721 4.2371 0.274587 4.41291C0.450403 4.58873 0.68886 4.6875 0.9375 4.6875H2.90859L7.14844 19.5223C7.31811 20.1088 7.67322 20.6246 8.16059 20.9924C8.64797 21.3602 9.24137 21.5602 9.85195 21.5625H21.1148C21.7168 21.5646 22.3034 21.3726 22.7877 21.015C23.2719 20.6574 23.628 20.1533 23.8031 19.5773L27.1465 8.71289C27.1895 8.57277 27.1991 8.42451 27.1745 8.28001C27.1499 8.13552 27.0917 7.99881 27.0047 7.88086Z" fill="#1DBF73"/>
  </g>
  <defs>
    <clipPath id="clip0_11_365">
      <rect width="30" height="30" fill="white"/>
    </clipPath>
  </defs>
</svg>