<svg xmlns="http://www.w3.org/2000/svg" width="31" height="30" viewBox="0 0 31 30" fill="none">
  <path d="M25.8125 6.5625H21.125V5.625C21.125 4.87908 20.8287 4.16371 20.3012 3.63626C19.7738 3.10882 19.0584 2.8125 18.3125 2.8125H12.6875C11.9416 2.8125 11.2262 3.10882 10.6988 3.63626C10.1713 4.16371 9.875 4.87908 9.875 5.625V6.5625H5.1875C4.69022 6.5625 4.21331 6.76004 3.86167 7.11167C3.51004 7.46331 3.3125 7.94022 3.3125 8.4375V23.4375C3.3125 23.9348 3.51004 24.4117 3.86167 24.7633C4.21331 25.115 4.69022 25.3125 5.1875 25.3125H25.8125C26.3098 25.3125 26.7867 25.115 27.1383 24.7633C27.49 24.4117 27.6875 23.9348 27.6875 23.4375V8.4375C27.6875 7.94022 27.49 7.46331 27.1383 7.11167C26.7867 6.76004 26.3098 6.5625 25.8125 6.5625ZM11.75 5.625C11.75 5.37636 11.8488 5.1379 12.0246 4.96209C12.2004 4.78627 12.4389 4.6875 12.6875 4.6875H18.3125C18.5611 4.6875 18.7996 4.78627 18.9754 4.96209C19.1512 5.1379 19.25 5.37636 19.25 5.625V6.5625H11.75V5.625ZM25.8125 8.4375V13.3137C22.6482 15.0361 19.1027 15.9381 15.5 15.9375C11.8974 15.9382 8.35206 15.0365 5.1875 13.3148V8.4375H25.8125ZM25.8125 23.4375H5.1875V15.4266C8.39835 16.9971 11.9256 17.8132 15.5 17.8125C19.0744 17.8126 22.6017 16.9961 25.8125 15.4254V23.4375ZM12.6875 13.125C12.6875 12.8764 12.7863 12.6379 12.9621 12.4621C13.1379 12.2863 13.3764 12.1875 13.625 12.1875H17.375C17.6236 12.1875 17.8621 12.2863 18.0379 12.4621C18.2137 12.6379 18.3125 12.8764 18.3125 13.125C18.3125 13.3736 18.2137 13.6121 18.0379 13.7879C17.8621 13.9637 17.6236 14.0625 17.375 14.0625H13.625C13.3764 14.0625 13.1379 13.9637 12.9621 13.7879C12.7863 13.6121 12.6875 13.3736 12.6875 13.125Z" fill="#1DBF73"/>
</svg>