<svg xmlns="http://www.w3.org/2000/svg" width="31" height="30" viewBox="0 0 31 30" fill="none">
  <path d="M25.8125 9.375H22.0625V5.625C22.0625 5.12772 21.865 4.65081 21.5133 4.29917C21.1617 3.94754 20.6848 3.75 20.1875 3.75H5.1875C4.69022 3.75 4.21331 3.94754 3.86167 4.29917C3.51004 4.65081 3.3125 5.12772 3.3125 5.625V20.625C3.31305 20.8014 3.36334 20.974 3.4576 21.1231C3.55186 21.2722 3.68626 21.3916 3.84537 21.4678C4.00447 21.5439 4.18182 21.5736 4.35704 21.5534C4.53227 21.5333 4.69825 21.4641 4.83594 21.3539L8.9375 18.0469V21.5625C8.9375 22.0598 9.13504 22.5367 9.48668 22.8883C9.83831 23.24 10.3152 23.4375 10.8125 23.4375H21.7801L26.1641 26.9789C26.3299 27.1131 26.5366 27.1867 26.75 27.1875C26.9986 27.1875 27.2371 27.0887 27.4129 26.9129C27.5887 26.7371 27.6875 26.4986 27.6875 26.25V11.25C27.6875 10.7527 27.49 10.2758 27.1383 9.92418C26.7867 9.57254 26.3098 9.375 25.8125 9.375ZM8.29883 16.1461L5.1875 18.6621V5.625H20.1875V15.9375H8.88828C8.67372 15.9375 8.46565 16.0112 8.29883 16.1461ZM25.8125 24.2871L22.7012 21.7711C22.5353 21.6369 22.3286 21.5633 22.1152 21.5625H10.8125V17.8125H20.1875C20.6848 17.8125 21.1617 17.615 21.5133 17.2633C21.865 16.9117 22.0625 16.4348 22.0625 15.9375V11.25H25.8125V24.2871Z" fill="#C3C5C8"/>
</svg>