<svg xmlns="http://www.w3.org/2000/svg" width="30" height="30" viewBox="0 0 30 30" fill="none">
  <path d="M28.6876 17.625C28.5891 17.6988 28.477 17.7526 28.3578 17.7831C28.2385 17.8137 28.1144 17.8205 27.9925 17.803C27.8707 17.7856 27.7534 17.7444 27.6475 17.6817C27.5415 17.6189 27.449 17.536 27.3751 17.4375C26.8101 16.6779 26.0745 16.0617 25.2278 15.6383C24.3811 15.2149 23.4468 14.9963 22.5001 15C22.3158 14.9999 22.1355 14.9456 21.9819 14.8437C21.8283 14.7417 21.7081 14.5968 21.6364 14.4269C21.5878 14.3116 21.5627 14.1877 21.5627 14.0625C21.5627 13.9373 21.5878 13.8134 21.6364 13.698C21.7081 13.5282 21.8283 13.3832 21.9819 13.2813C22.1355 13.1794 22.3158 13.125 22.5001 13.125C23.0261 13.1249 23.5416 12.9774 23.988 12.699C24.4343 12.4207 24.7937 12.0228 25.0252 11.5505C25.2568 11.0782 25.3512 10.5504 25.2978 10.0271C25.2445 9.50376 25.0454 9.00591 24.7233 8.59007C24.4011 8.17423 23.9688 7.85706 23.4755 7.67459C22.9821 7.49213 22.4475 7.45168 21.9323 7.55784C21.4171 7.664 20.942 7.91251 20.5609 8.27515C20.1799 8.63779 19.9082 9.10002 19.7767 9.60934C19.7459 9.72861 19.6919 9.84064 19.6179 9.93905C19.5438 10.0375 19.451 10.1203 19.3449 10.1829C19.2388 10.2455 19.1215 10.2865 18.9995 10.3037C18.8775 10.3209 18.7534 10.3139 18.6341 10.2832C18.5148 10.2524 18.4028 10.1984 18.3044 10.1243C18.206 10.0503 18.1231 9.95753 18.0605 9.85143C17.998 9.74534 17.9569 9.62795 17.9397 9.50598C17.9225 9.38402 17.9295 9.25986 17.9603 9.14059C18.1428 8.43432 18.4876 7.78039 18.9674 7.23085C19.4471 6.6813 20.0485 6.2513 20.7236 5.97506C21.3988 5.69883 22.1291 5.58398 22.8564 5.63965C23.5838 5.69532 24.2881 5.91999 24.9133 6.29576C25.5386 6.67153 26.0675 7.18805 26.458 7.80421C26.8485 8.42036 27.0898 9.11915 27.1627 9.84498C27.2356 10.5708 27.1381 11.3036 26.878 11.9851C26.6178 12.6667 26.2022 13.278 25.6642 13.7707C26.939 14.3226 28.0471 15.1985 28.8786 16.3113C28.9525 16.41 29.0062 16.5224 29.0365 16.6419C29.0669 16.7614 29.0734 16.8857 29.0557 17.0078C29.0379 17.1298 28.9963 17.2471 28.9331 17.353C28.87 17.4589 28.7865 17.5513 28.6876 17.625ZM22.3736 24.8437C22.4414 24.9504 22.4869 25.0697 22.5075 25.1945C22.528 25.3193 22.523 25.4469 22.493 25.5697C22.4629 25.6925 22.4083 25.808 22.3324 25.9091C22.2565 26.0103 22.161 26.095 22.0515 26.1583C21.9421 26.2216 21.8209 26.2621 21.6954 26.2773C21.5699 26.2926 21.4426 26.2823 21.3212 26.247C21.1997 26.2118 21.0867 26.1524 20.9888 26.0723C20.8909 25.9923 20.8103 25.8933 20.7517 25.7812C20.1611 24.7812 19.32 23.9525 18.3114 23.3768C17.3028 22.801 16.1615 22.4983 15.0001 22.4983C13.8387 22.4983 12.6975 22.801 11.6888 23.3768C10.6802 23.9525 9.83912 24.7812 9.24855 25.7812C9.18994 25.8933 9.10928 25.9923 9.01141 26.0723C8.91354 26.1524 8.80049 26.2118 8.67905 26.247C8.55762 26.2823 8.43032 26.2926 8.3048 26.2773C8.17928 26.2621 8.05815 26.2216 7.94868 26.1583C7.83921 26.095 7.74367 26.0103 7.66782 25.9091C7.59196 25.808 7.53735 25.6925 7.50726 25.5697C7.47718 25.4469 7.47225 25.3193 7.49277 25.1945C7.5133 25.0697 7.55884 24.9504 7.62667 24.8437C8.53558 23.282 9.92143 22.0531 11.5806 21.3375C10.647 20.6227 9.96085 19.6333 9.61863 18.5084C9.27641 17.3834 9.29531 16.1796 9.67267 15.0659C10.05 13.9523 10.7669 12.985 11.7225 12.2998C12.678 11.6147 13.8243 11.2462 15.0001 11.2462C16.1759 11.2462 17.3222 11.6147 18.2778 12.2998C19.2333 12.985 19.9502 13.9523 20.3276 15.0659C20.7049 16.1796 20.7238 17.3834 20.3816 18.5084C20.0394 19.6333 19.3532 20.6227 18.4196 21.3375C20.0788 22.0531 21.4646 23.282 22.3736 24.8437ZM15.0001 20.625C15.7418 20.625 16.4668 20.405 17.0835 19.993C17.7002 19.5809 18.1808 18.9953 18.4647 18.31C18.7485 17.6248 18.8228 16.8708 18.6781 16.1434C18.5334 15.4159 18.1762 14.7478 17.6518 14.2233C17.1273 13.6989 16.4591 13.3417 15.7317 13.197C15.0043 13.0523 14.2503 13.1266 13.565 13.4104C12.8798 13.6942 12.2942 14.1749 11.8821 14.7916C11.47 15.4083 11.2501 16.1333 11.2501 16.875C11.2501 17.8695 11.6452 18.8234 12.3485 19.5266C13.0517 20.2299 14.0056 20.625 15.0001 20.625ZM8.43761 14.0625C8.43761 13.8138 8.33884 13.5754 8.16302 13.3996C7.98721 13.2237 7.74875 13.125 7.50011 13.125C6.97409 13.1249 6.45862 12.9774 6.01226 12.699C5.5659 12.4207 5.20654 12.0228 4.97499 11.5505C4.74345 11.0782 4.649 10.5504 4.70238 10.0271C4.75575 9.50376 4.95482 9.00591 5.27696 8.59007C5.5991 8.17423 6.0314 7.85706 6.52476 7.67459C7.01812 7.49213 7.55276 7.45168 8.06796 7.55784C8.58316 7.664 9.05826 7.91251 9.4393 8.27515C9.82034 8.63779 10.092 9.10002 10.2235 9.60934C10.2857 9.85021 10.441 10.0565 10.6553 10.1829C10.8696 10.3093 11.1253 10.3453 11.3661 10.2832C11.607 10.221 11.8133 10.0657 11.9397 9.85143C12.066 9.63716 12.1021 9.38146 12.04 9.14059C11.8574 8.43432 11.5126 7.78039 11.0329 7.23085C10.5531 6.6813 9.95177 6.2513 9.27662 5.97506C8.60147 5.69883 7.87116 5.58398 7.14381 5.63965C6.41646 5.69532 5.71214 5.91999 5.0869 6.29576C4.46166 6.67153 3.93274 7.18805 3.54225 7.80421C3.15175 8.42036 2.91044 9.11915 2.83754 9.84498C2.76463 10.5708 2.86213 11.3036 3.12227 11.9851C3.38242 12.6667 3.79803 13.278 4.33605 13.7707C3.06255 14.3231 1.95564 15.199 1.12511 16.3113C0.975772 16.5102 0.911566 16.7603 0.946619 17.0065C0.981673 17.2528 1.11311 17.475 1.31203 17.6244C1.51094 17.7737 1.76103 17.8379 2.00728 17.8029C2.25353 17.7678 2.47577 17.6364 2.62511 17.4375C3.19017 16.6779 3.92567 16.0617 4.77241 15.6383C5.61914 15.2149 6.55344 14.9963 7.50011 15C7.74875 15 7.98721 14.9012 8.16302 14.7254C8.33884 14.5496 8.43761 14.3111 8.43761 14.0625Z" fill="#1DBF73"/>
</svg>