<svg xmlns="http://www.w3.org/2000/svg" width="31" height="30" viewBox="0 0 31 30" fill="none">
  <path d="M25.8125 4.6875H5.1875C4.69022 4.6875 4.21331 4.88504 3.86167 5.23667C3.51004 5.58831 3.3125 6.06522 3.3125 6.5625V23.4375C3.3125 23.9348 3.51004 24.4117 3.86167 24.7633C4.21331 25.115 4.69022 25.3125 5.1875 25.3125H25.8125C26.3098 25.3125 26.7867 25.115 27.1383 24.7633C27.49 24.4117 27.6875 23.9348 27.6875 23.4375V6.5625C27.6875 6.06522 27.49 5.58831 27.1383 5.23667C26.7867 4.88504 26.3098 4.6875 25.8125 4.6875ZM25.8125 6.5625V18.6035L22.7574 15.5496C22.5833 15.3755 22.3766 15.2373 22.1491 15.143C21.9216 15.0488 21.6777 15.0003 21.4314 15.0003C21.1852 15.0003 20.9413 15.0488 20.7138 15.143C20.4863 15.2373 20.2796 15.3755 20.1055 15.5496L17.7617 17.8934L12.6055 12.7371C12.2539 12.3857 11.7771 12.1884 11.2801 12.1884C10.783 12.1884 10.3063 12.3857 9.95469 12.7371L5.1875 17.5043V6.5625H25.8125ZM5.1875 20.1562L11.2812 14.0625L20.6562 23.4375H5.1875V20.1562ZM25.8125 23.4375H23.3082L19.0895 19.2188L21.4332 16.875L25.8125 21.2555V23.4375ZM17.375 11.7188C17.375 11.4406 17.4575 11.1687 17.612 10.9375C17.7665 10.7062 17.9861 10.526 18.2431 10.4195C18.5001 10.3131 18.7828 10.2853 19.0556 10.3395C19.3284 10.3938 19.579 10.5277 19.7756 10.7244C19.9723 10.921 20.1062 11.1716 20.1605 11.4444C20.2147 11.7172 20.1869 11.9999 20.0805 12.2569C19.974 12.5139 19.7938 12.7335 19.5625 12.888C19.3313 13.0425 19.0594 13.125 18.7812 13.125C18.4083 13.125 18.0506 12.9768 17.7869 12.7131C17.5232 12.4494 17.375 12.0917 17.375 11.7188Z" fill="#C3C5C8"/>
</svg>