<svg xmlns="http://www.w3.org/2000/svg" width="30" height="31" viewBox="0 0 30 31" fill="none">
  <path d="M20.8594 3.86133C18.4395 3.86133 16.3207 4.90195 15 6.66094C13.6793 4.90195 11.5605 3.86133 9.14062 3.86133C7.21433 3.8635 5.36755 4.62968 4.00545 5.99178C2.64335 7.35388 1.87717 9.20066 1.875 11.127C1.875 19.3301 14.0379 25.9699 14.5559 26.2441C14.6924 26.3176 14.845 26.356 15 26.356C15.155 26.356 15.3076 26.3176 15.4441 26.2441C15.9621 25.9699 28.125 19.3301 28.125 11.127C28.1228 9.20066 27.3566 7.35388 25.9946 5.99178C24.6325 4.62968 22.7857 3.8635 20.8594 3.86133ZM15 24.3457C12.8602 23.0988 3.75 17.4188 3.75 11.127C3.75186 9.69784 4.3204 8.3278 5.33093 7.31726C6.34147 6.30673 7.71151 5.73819 9.14062 5.73633C11.4199 5.73633 13.3336 6.95039 14.1328 8.90039C14.2034 9.07234 14.3236 9.21941 14.478 9.32291C14.6324 9.42641 14.8141 9.48167 15 9.48167C15.1859 9.48167 15.3676 9.42641 15.522 9.32291C15.6764 9.21941 15.7966 9.07234 15.8672 8.90039C16.6664 6.94688 18.5801 5.73633 20.8594 5.73633C22.2885 5.73819 23.6585 6.30673 24.6691 7.31726C25.6796 8.3278 26.2481 9.69784 26.25 11.127C26.25 17.4094 17.1375 23.0977 15 24.3457Z" fill="#8692A6"/>
</svg>