<svg xmlns="http://www.w3.org/2000/svg" width="25" height="25" viewBox="0 0 25 25" fill="none">
  <path d="M10.9375 11.7188C10.9375 12.0278 10.8459 12.3299 10.6742 12.5868C10.5025 12.8438 10.2585 13.0441 9.97294 13.1623C9.68743 13.2806 9.37327 13.3115 9.07017 13.2512C8.76708 13.1909 8.48867 13.0421 8.27015 12.8236C8.05163 12.6051 7.90281 12.3267 7.84252 12.0236C7.78223 11.7205 7.81318 11.4063 7.93144 11.1208C8.0497 10.8353 8.24997 10.5913 8.50692 10.4196C8.76387 10.2479 9.06597 10.1562 9.375 10.1562C9.7894 10.1562 10.1868 10.3209 10.4799 10.6139C10.7729 10.9069 10.9375 11.3043 10.9375 11.7188ZM22.6562 5.46875V19.5312C22.6562 19.9457 22.4916 20.3431 22.1986 20.6361C21.9056 20.9291 21.5082 21.0938 21.0938 21.0938H3.90625C3.49185 21.0938 3.09442 20.9291 2.8014 20.6361C2.50837 20.3431 2.34375 19.9457 2.34375 19.5312V5.46875C2.34375 5.05435 2.50837 4.65692 2.8014 4.3639C3.09442 4.07087 3.49185 3.90625 3.90625 3.90625H21.0938C21.5082 3.90625 21.9056 4.07087 22.1986 4.3639C22.4916 4.65692 22.6562 5.05435 22.6562 5.46875ZM13.2568 16.2109C13.004 15.267 12.4046 14.4531 11.5781 13.9316C12.017 13.4953 12.3165 12.9386 12.4386 12.3319C12.5607 11.7252 12.4999 11.0959 12.2639 10.5238C12.0279 9.95168 11.6274 9.46252 11.1131 9.11832C10.5988 8.77412 9.99386 8.59037 9.375 8.59037C8.75614 8.59037 8.15122 8.77412 7.63691 9.11832C7.1226 9.46252 6.72208 9.95168 6.4861 10.5238C6.25012 11.0959 6.18933 11.7252 6.31141 12.3319C6.4335 12.9386 6.73298 13.4953 7.17188 13.9316C6.34595 14.4537 5.74668 15.2673 5.49316 16.2109C5.44136 16.4117 5.47142 16.6247 5.57673 16.8033C5.68204 16.9819 5.85396 17.1113 6.05469 17.1631C6.25541 17.2149 6.46849 17.1848 6.64706 17.0795C6.82562 16.9742 6.95504 16.8023 7.00684 16.6016C7.26465 15.6006 8.28223 14.8438 9.375 14.8438C10.4678 14.8438 11.4863 15.5986 11.7432 16.6016C11.795 16.8023 11.9244 16.9742 12.1029 17.0795C12.2815 17.1848 12.4946 17.2149 12.6953 17.1631C12.896 17.1113 13.068 16.9819 13.1733 16.8033C13.2786 16.6247 13.3086 16.4117 13.2568 16.2109ZM19.5312 14.0625C19.5312 13.8553 19.4489 13.6566 19.3024 13.5101C19.1559 13.3636 18.9572 13.2812 18.75 13.2812H14.8438C14.6365 13.2812 14.4378 13.3636 14.2913 13.5101C14.1448 13.6566 14.0625 13.8553 14.0625 14.0625C14.0625 14.2697 14.1448 14.4684 14.2913 14.6149C14.4378 14.7614 14.6365 14.8438 14.8438 14.8438H18.75C18.9572 14.8438 19.1559 14.7614 19.3024 14.6149C19.4489 14.4684 19.5312 14.2697 19.5312 14.0625ZM19.5312 10.9375C19.5312 10.7303 19.4489 10.5316 19.3024 10.3851C19.1559 10.2386 18.9572 10.1562 18.75 10.1562H14.8438C14.6365 10.1562 14.4378 10.2386 14.2913 10.3851C14.1448 10.5316 14.0625 10.7303 14.0625 10.9375C14.0625 11.1447 14.1448 11.3434 14.2913 11.4899C14.4378 11.6364 14.6365 11.7188 14.8438 11.7188H18.75C18.9572 11.7188 19.1559 11.6364 19.3024 11.4899C19.4489 11.3434 19.5312 11.1447 19.5312 10.9375Z" fill="#1DBF73"/>
</svg>