<svg xmlns="http://www.w3.org/2000/svg" width="18" height="17" viewBox="0 0 18 17" fill="none">
  <path d="M9 1.0625C7.35954 1.06426 5.78681 1.6805 4.62683 2.77604C3.46685 3.87157 2.81436 5.35693 2.8125 6.90625C2.8125 11.9066 8.4375 15.6832 8.67727 15.8412C8.77184 15.9038 8.88452 15.9374 9 15.9374C9.11548 15.9374 9.22816 15.9038 9.32273 15.8412C9.5625 15.6832 15.1875 11.9066 15.1875 6.90625C15.1856 5.35693 14.5331 3.87157 13.3732 2.77604C12.2132 1.6805 10.6405 1.06426 9 1.0625ZM9 4.78125C9.44501 4.78125 9.88002 4.90588 10.25 5.13938C10.62 5.37288 10.9084 5.70475 11.0787 6.09305C11.249 6.48134 11.2936 6.90861 11.2068 7.32082C11.12 7.73303 10.9057 8.11167 10.591 8.40885C10.2763 8.70604 9.87541 8.90843 9.43895 8.99042C9.0025 9.07241 8.5501 9.03033 8.13896 8.86949C7.72783 8.70866 7.37643 8.43629 7.12919 8.08684C6.88196 7.73738 6.75 7.32654 6.75 6.90625C6.75 6.34266 6.98705 5.80216 7.40901 5.40365C7.83097 5.00513 8.40326 4.78125 9 4.78125Z" fill="#8692A6"/>
</svg>