<svg xmlns="http://www.w3.org/2000/svg" width="25" height="25" viewBox="0 0 25 25" fill="none">
  <path d="M21.0938 9.37497C21.0946 7.92673 20.7295 6.50177 20.0322 5.23242C19.3349 3.96308 18.3282 2.89053 17.1055 2.1144C15.8828 1.33827 14.4838 0.883731 13.0384 0.793005C11.593 0.702278 10.1481 0.978305 8.83792 1.59545C7.52776 2.21259 6.39481 3.15083 5.5443 4.32302C4.69379 5.49522 4.15331 6.86334 3.97307 8.30032C3.79283 9.7373 3.97866 11.1965 4.51331 12.5425C5.04797 13.8884 5.91409 15.0774 7.03125 15.999V23.4375C7.03116 23.5707 7.06514 23.7018 7.12997 23.8182C7.1948 23.9346 7.28832 24.0325 7.40164 24.1025C7.51497 24.1726 7.64433 24.2125 7.77743 24.2185C7.91054 24.2245 8.04296 24.1963 8.16211 24.1367L12.5 21.9726L16.8389 24.1416C16.9476 24.1936 17.0669 24.22 17.1875 24.2187C17.3947 24.2187 17.5934 24.1364 17.7399 23.9899C17.8864 23.8434 17.9688 23.6447 17.9688 23.4375V15.999C18.9462 15.1939 19.7334 14.1825 20.2737 13.0372C20.814 11.892 21.094 10.6413 21.0938 9.37497ZM5.46875 9.37497C5.46875 7.98432 5.88113 6.62491 6.65373 5.46862C7.42633 4.31234 8.52447 3.41113 9.80926 2.87895C11.0941 2.34677 12.5078 2.20753 13.8717 2.47883C15.2357 2.75013 16.4885 3.41979 17.4718 4.40313C18.4552 5.38647 19.1248 6.63932 19.3961 8.00325C19.6675 9.36718 19.5282 10.7809 18.996 12.0657C18.4639 13.3505 17.5626 14.4486 16.4064 15.2212C15.2501 15.9938 13.8907 16.4062 12.5 16.4062C10.6358 16.4042 8.84861 15.6627 7.53044 14.3445C6.21227 13.0264 5.47082 11.2391 5.46875 9.37497ZM7.03125 9.37497C7.03125 8.29336 7.35199 7.23603 7.9529 6.3367C8.55382 5.43737 9.40792 4.73643 10.4072 4.32251C11.4065 3.90859 12.5061 3.80029 13.5669 4.01131C14.6277 4.22232 15.6022 4.74317 16.367 5.50799C17.1318 6.2728 17.6527 7.24724 17.8637 8.30807C18.0747 9.36891 17.9664 10.4685 17.5525 11.4678C17.1386 12.4671 16.4376 13.3212 15.5383 13.9221C14.6389 14.523 13.5816 14.8437 12.5 14.8437C11.0501 14.8422 9.65998 14.2655 8.63472 13.2403C7.60947 12.215 7.0328 10.8249 7.03125 9.37497Z" fill="#1DBF73"/>
</svg>