<svg xmlns="http://www.w3.org/2000/svg" width="34" height="34" viewBox="0 0 34 34" fill="none">
  <g filter="url(#filter0_d_11_701)">
    <circle cx="17" cy="15" r="14" fill="white"/>
  </g>
  <path fill-rule="evenodd" clip-rule="evenodd" d="M16.4023 20.8202C16.4023 21.374 16.8616 21.8333 17.4155 21.8333C17.9694 21.8333 18.4287 21.374 18.4287 20.8202V16.4326H22.8202C23.374 16.4326 23.8333 15.9733 23.8333 15.4194C23.8333 14.8655 23.374 14.4062 22.8202 14.4062H18.4287V10.0132C18.4287 9.4593 17.9694 9 17.4155 9C16.8616 9 16.4023 9.4593 16.4023 10.0132V14.4062H12.0132C11.4593 14.4062 11 14.8655 11 15.4194C11 15.9733 11.4593 16.4326 12.0132 16.4326H16.4023V20.8202Z" fill="#1DBF73"/>
  <defs>
    <filter id="filter0_d_11_701" x="0" y="0" width="34" height="34" filterUnits="userSpaceOnUse" color-interpolation-filters="sRGB">
      <feFlood flood-opacity="0" result="BackgroundImageFix"/>
      <feColorMatrix in="SourceAlpha" type="matrix" values="0 0 0 0 0 0 0 0 0 0 0 0 0 0 0 0 0 0 127 0" result="hardAlpha"/>
      <feOffset dy="2"/>
      <feGaussianBlur stdDeviation="1.5"/>
      <feComposite in2="hardAlpha" operator="out"/>
      <feColorMatrix type="matrix" values="0 0 0 0 0.729167 0 0 0 0 0.707899 0 0 0 0 0.707899 0 0 0 0.2 0"/>
      <feBlend mode="normal" in2="BackgroundImageFix" result="effect1_dropShadow_11_701"/>
      <feBlend mode="normal" in="SourceGraphic" in2="effect1_dropShadow_11_701" result="shape"/>
    </filter>
  </defs>
</svg>