<svg xmlns="http://www.w3.org/2000/svg" width="30" height="31" viewBox="0 0 30 31" fill="none">
  <circle cx="15" cy="15.1113" r="15" fill="#1DBF73"/>
  <path d="M6.7867 13.5118C7.01599 13.2753 7.32693 13.1424 7.65115 13.1424C7.97537 13.1424 8.28631 13.2753 8.5156 13.5118L12.8391 17.9723L21.4836 9.05248C21.5971 8.93528 21.7319 8.84229 21.8802 8.77883C22.0286 8.71537 22.1876 8.68268 22.3482 8.68262C22.5088 8.68256 22.6678 8.71514 22.8162 8.77849C22.9646 8.84184 23.0995 8.93473 23.2131 9.05185C23.3267 9.16897 23.4168 9.30803 23.4783 9.46109C23.5398 9.61415 23.5715 9.7782 23.5716 9.9439C23.5716 10.1096 23.54 10.2737 23.4786 10.4268C23.4172 10.5799 23.3272 10.719 23.2137 10.8362L12.8391 21.5398L6.7867 15.2955C6.55748 15.0589 6.42871 14.7381 6.42871 14.4036C6.42871 14.0691 6.55748 13.7483 6.7867 13.5118Z" fill="white"/>
</svg>