<svg xmlns="http://www.w3.org/2000/svg" width="15" height="15" viewBox="0 0 15 15" fill="none">
  <path d="M14.2565 7.96876L8.43751 2.14981C8.35077 2.06238 8.24751 1.99306 8.13375 1.94588C8.01998 1.8987 7.89797 1.87461 7.77481 1.875H2.34375C2.21943 1.875 2.10021 1.92439 2.0123 2.0123C1.92439 2.10021 1.875 2.21943 1.875 2.34375V7.77481C1.87461 7.89797 1.8987 8.01998 1.94588 8.13375C1.99306 8.24751 2.06238 8.35077 2.14981 8.43751L7.96876 14.2565C8.05581 14.3435 8.15917 14.4126 8.27293 14.4597C8.38669 14.5069 8.50861 14.5311 8.63174 14.5311C8.75488 14.5311 8.8768 14.5069 8.99056 14.4597C9.10432 14.4126 9.20767 14.3435 9.29473 14.2565L14.2565 9.29473C14.3435 9.20767 14.4126 9.10432 14.4597 8.99056C14.5069 8.8768 14.5311 8.75488 14.5311 8.63174C14.5311 8.50861 14.5069 8.38669 14.4597 8.27293C14.4126 8.15917 14.3435 8.05581 14.2565 7.96876ZM4.92188 5.62501C4.78281 5.62501 4.64687 5.58377 4.53124 5.50651C4.41562 5.42925 4.32549 5.31943 4.27228 5.19095C4.21906 5.06247 4.20513 4.9211 4.23227 4.78471C4.2594 4.64831 4.32636 4.52303 4.4247 4.4247C4.52303 4.32636 4.64831 4.2594 4.78471 4.23227C4.9211 4.20513 5.06247 4.21906 5.19095 4.27228C5.31943 4.32549 5.42925 4.41562 5.50651 4.53124C5.58377 4.64687 5.62501 4.78281 5.62501 4.92188C5.62501 5.10836 5.55093 5.2872 5.41906 5.41906C5.2872 5.55093 5.10836 5.62501 4.92188 5.62501Z" fill="#1DBF73"/>
</svg>