<svg xmlns="http://www.w3.org/2000/svg" width="30" height="31" viewBox="0 0 30 31" fill="none">
  <path d="M20.625 18.8614C19.9997 18.8612 19.3806 18.9865 18.8045 19.2299C18.2284 19.4732 17.707 19.8297 17.2711 20.2782L11.8688 16.806C12.2937 15.7162 12.2937 14.5066 11.8688 13.4169L17.2711 9.94462C18.0826 10.7759 19.1738 11.2762 20.3332 11.3486C21.4926 11.421 22.6376 11.0603 23.5461 10.3364C24.4547 9.6126 25.0622 8.57719 25.2507 7.43094C25.4392 6.28469 25.1954 5.10926 24.5665 4.13256C23.9377 3.15585 22.9685 2.44744 21.847 2.14468C20.7255 1.84192 19.5316 1.96637 18.4966 2.49391C17.4616 3.02144 16.6594 3.91448 16.2455 4.99988C15.8316 6.08529 15.8354 7.28572 16.2563 8.36845L10.8539 11.8407C10.2034 11.1728 9.36846 10.7141 8.45586 10.5232C7.54327 10.3323 6.59448 10.4179 5.73077 10.769C4.86707 11.1202 4.12769 11.7209 3.60716 12.4944C3.08663 13.2679 2.80859 14.1791 2.80859 15.1114C2.80859 16.0438 3.08663 16.9549 3.60716 17.7284C4.12769 18.502 4.86707 19.1027 5.73077 19.4538C6.59448 19.8049 7.54327 19.8905 8.45586 19.6996C9.36846 19.5087 10.2034 19.05 10.8539 18.3821L16.2563 21.8544C15.8944 22.7878 15.8408 23.8126 16.1035 24.7787C16.3661 25.7447 16.9312 26.6013 17.7159 27.223C18.5006 27.8447 19.4637 28.1989 20.4642 28.2336C21.4648 28.2683 22.4501 27.9818 23.276 27.416C24.102 26.8501 24.725 26.0348 25.054 25.0892C25.383 24.1437 25.4006 23.1177 25.1042 22.1614C24.8079 21.2051 24.2132 20.3688 23.4071 19.775C22.6011 19.1812 21.6262 18.861 20.625 18.8614ZM20.625 3.86142C21.1813 3.86142 21.7251 4.02637 22.1876 4.33541C22.6501 4.64445 23.0106 5.08371 23.2235 5.59762C23.4363 6.11154 23.492 6.67704 23.3835 7.22261C23.275 7.76818 23.0071 8.26932 22.6138 8.66266C22.2204 9.05599 21.7193 9.32386 21.1737 9.43238C20.6282 9.5409 20.0627 9.4852 19.5487 9.27233C19.0348 9.05946 18.5956 8.69897 18.2865 8.23646C17.9775 7.77395 17.8125 7.23018 17.8125 6.67392C17.8125 5.928 18.1089 5.21263 18.6363 4.68518C19.1637 4.15774 19.8791 3.86142 20.625 3.86142ZM7.50004 17.9239C6.94378 17.9239 6.40001 17.759 5.9375 17.4499C5.47498 17.1409 5.1145 16.7016 4.90163 16.1877C4.68876 15.6738 4.63306 15.1083 4.74158 14.5627C4.8501 14.0172 5.11796 13.516 5.5113 13.1227C5.90464 12.7293 6.40577 12.4615 6.95135 12.353C7.49692 12.2444 8.06242 12.3001 8.57633 12.513C9.09025 12.7259 9.5295 13.0864 9.83855 13.5489C10.1476 14.0114 10.3125 14.5552 10.3125 15.1114C10.3125 15.8573 10.0162 16.5727 9.48878 17.1002C8.96133 17.6276 8.24596 17.9239 7.50004 17.9239ZM20.625 26.3614C20.0688 26.3614 19.525 26.1965 19.0625 25.8874C18.6 25.5784 18.2395 25.1391 18.0266 24.6252C17.8138 24.1113 17.7581 23.5458 17.8666 23.0002C17.9751 22.4547 18.243 21.9535 18.6363 21.5602C19.0296 21.1668 19.5308 20.899 20.0763 20.7905C20.6219 20.6819 21.1874 20.7376 21.7013 20.9505C22.2153 21.1634 22.6545 21.5239 22.9635 21.9864C23.2726 22.4489 23.4375 22.9927 23.4375 23.5489C23.4375 24.2948 23.1412 25.0102 22.6138 25.5377C22.0863 26.0651 21.371 26.3614 20.625 26.3614Z" fill="#8692A6"/>
</svg>