<svg xmlns="http://www.w3.org/2000/svg" width="20" height="20" viewBox="0 0 20 20" fill="none">
  <g clip-path="url(#clip0_11_928)">
    <path d="M7.5 16.875C7.5 17.1222 7.42669 17.3639 7.28934 17.5695C7.15199 17.775 6.95676 17.9352 6.72835 18.0299C6.49995 18.1245 6.24861 18.1492 6.00614 18.101C5.76366 18.0527 5.54093 17.9337 5.36612 17.7589C5.1913 17.5841 5.07225 17.3613 5.02402 17.1189C4.97579 16.8764 5.00054 16.6251 5.09515 16.3966C5.18976 16.1682 5.34998 15.973 5.55554 15.8357C5.7611 15.6983 6.00277 15.625 6.25 15.625C6.58152 15.625 6.89946 15.7567 7.13388 15.9911C7.3683 16.2255 7.5 16.5435 7.5 16.875ZM14.375 15.625C14.1278 15.625 13.8861 15.6983 13.6805 15.8357C13.475 15.973 13.3148 16.1682 13.2201 16.3966C13.1255 16.6251 13.1008 16.8764 13.149 17.1189C13.1972 17.3613 13.3163 17.5841 13.4911 17.7589C13.6659 17.9337 13.8887 18.0527 14.1311 18.101C14.3736 18.1492 14.6249 18.1245 14.8534 18.0299C15.0818 17.9352 15.277 17.775 15.4143 17.5695C15.5517 17.3639 15.625 17.1222 15.625 16.875C15.625 16.5435 15.4933 16.2255 15.2589 15.9911C15.0245 15.7567 14.7065 15.625 14.375 15.625ZM18.0031 5.25391C17.945 5.17514 17.8692 5.11113 17.7818 5.06703C17.6944 5.02292 17.5979 4.99997 17.5 5H3.775L3.14141 2.78125C3.06579 2.52058 2.90778 2.29141 2.69104 2.12805C2.4743 1.96468 2.21048 1.8759 1.93906 1.875H0.625C0.45924 1.875 0.300269 1.94085 0.183058 2.05806C0.065848 2.17527 0 2.33424 0 2.5C0 2.66576 0.065848 2.82473 0.183058 2.94194C0.300269 3.05915 0.45924 3.125 0.625 3.125H1.93906L4.76562 13.0148C4.87874 13.4059 5.11548 13.7497 5.4404 13.9949C5.76531 14.2401 6.16092 14.3735 6.56797 14.375H14.0766C14.4779 14.3764 14.8689 14.2484 15.1918 14.01C15.5146 13.7716 15.752 13.4355 15.8687 13.0516L18.0977 5.80859C18.1264 5.71518 18.1328 5.61634 18.1163 5.52001C18.0999 5.42368 18.0611 5.33254 18.0031 5.25391Z" fill="#8692A6"/>
  </g>
  <defs>
    <clipPath id="clip0_11_928">
      <rect width="20" height="20" fill="white"/>
    </clipPath>
  </defs>
</svg>