<svg xmlns="http://www.w3.org/2000/svg" width="25" height="25" viewBox="0 0 25 25" fill="none">
  <path d="M13.834 13.0527L9.92773 16.959C9.81847 17.0684 9.67921 17.1429 9.52758 17.1731C9.37595 17.2033 9.21878 17.1878 9.07594 17.1286C8.93311 17.0694 8.81106 16.9692 8.72522 16.8406C8.63938 16.712 8.59363 16.5609 8.59375 16.4062V13.2812H2.34375C2.13655 13.2812 1.93784 13.1989 1.79132 13.0524C1.64481 12.9059 1.5625 12.7072 1.5625 12.5C1.5625 12.2928 1.64481 12.0941 1.79132 11.9476C1.93784 11.8011 2.13655 11.7188 2.34375 11.7188H8.59375V8.59375C8.59363 8.43914 8.63938 8.28798 8.72522 8.15939C8.81106 8.0308 8.93311 7.93057 9.07594 7.87139C9.21878 7.81221 9.37595 7.79673 9.52758 7.82693C9.67921 7.85713 9.81847 7.93163 9.92773 8.04102L13.834 11.9473C13.9066 12.0198 13.9642 12.106 14.0036 12.2008C14.0429 12.2957 14.0631 12.3973 14.0631 12.5C14.0631 12.6027 14.0429 12.7043 14.0036 12.7992C13.9642 12.894 13.9066 12.9802 13.834 13.0527ZM18.75 3.125H13.2812C13.074 3.125 12.8753 3.20731 12.7288 3.35382C12.5823 3.50034 12.5 3.69905 12.5 3.90625C12.5 4.11345 12.5823 4.31216 12.7288 4.45868C12.8753 4.60519 13.074 4.6875 13.2812 4.6875H18.75V20.3125H13.2812C13.074 20.3125 12.8753 20.3948 12.7288 20.5413C12.5823 20.6878 12.5 20.8865 12.5 21.0938C12.5 21.301 12.5823 21.4997 12.7288 21.6462C12.8753 21.7927 13.074 21.875 13.2812 21.875H18.75C19.1644 21.875 19.5618 21.7104 19.8549 21.4174C20.1479 21.1243 20.3125 20.7269 20.3125 20.3125V4.6875C20.3125 4.2731 20.1479 3.87567 19.8549 3.58265C19.5618 3.28962 19.1644 3.125 18.75 3.125Z" fill="#1DBF73"/>
</svg>