<svg xmlns="http://www.w3.org/2000/svg" width="25" height="25" viewBox="0 0 25 25" fill="none">
  <path d="M22.9004 11.17L18.4961 15.0137L19.8155 20.7364C19.8853 21.0355 19.8653 21.3486 19.7582 21.6365C19.651 21.9245 19.4614 22.1744 19.2129 22.3551C18.9645 22.5358 18.6683 22.6392 18.3614 22.6525C18.0545 22.6658 17.7504 22.5883 17.4873 22.4297L12.4961 19.4024L7.51565 22.4297C7.25253 22.5883 6.94851 22.6658 6.6416 22.6525C6.33468 22.6392 6.03849 22.5358 5.79006 22.3551C5.54162 22.1744 5.35196 21.9245 5.24479 21.6365C5.13763 21.3486 5.11771 21.0355 5.18752 20.7364L6.5049 15.0196L2.09963 11.17C1.86663 10.969 1.69815 10.7037 1.61531 10.4074C1.53247 10.1111 1.53897 9.79691 1.63398 9.50426C1.72899 9.21161 1.90829 8.95352 2.14939 8.76237C2.3905 8.57122 2.68267 8.4555 2.98928 8.42974L8.79592 7.92681L11.0625 2.52056C11.1809 2.23688 11.3805 1.99457 11.6363 1.82413C11.8921 1.65369 12.1926 1.56274 12.5 1.56274C12.8074 1.56274 13.1079 1.65369 13.3637 1.82413C13.6195 1.99457 13.8192 2.23688 13.9375 2.52056L16.211 7.92681L22.0156 8.42974C22.3223 8.4555 22.6144 8.57122 22.8555 8.76237C23.0966 8.95352 23.2759 9.21161 23.3709 9.50426C23.466 9.79691 23.4725 10.1111 23.3896 10.4074C23.3068 10.7037 23.1383 10.969 22.9053 11.17H22.9004Z" fill="#FFCB31"/>
</svg>