<svg xmlns="http://www.w3.org/2000/svg" width="150" height="42" viewBox="0 0 150 42" fill="none">
  <g clip-path="url(#clip0_11_368)">
    <path d="M108.066 3.43715C106.947 3.08144 105.404 2.9043 103.441 2.9043C101.479 2.9043 100.047 3.08287 98.9458 3.43715C97.8428 3.79287 97.0854 4.6643 96.6724 6.05144L86.1826 40.8386C86.1826 41.0514 86.3203 41.1586 86.5957 41.1586H93.3135C93.6577 41.1586 93.8818 40.9814 93.9858 40.6243L96.7251 31.5014C96.8276 31.11 97.0518 30.9143 97.3975 30.9143H109.541C109.885 30.9143 110.109 31.0929 110.213 31.4472L112.953 40.6772C113.057 40.9972 113.279 41.1572 113.625 41.1572H120.394C120.634 41.1572 120.756 41.05 120.756 40.8372L110.369 6.05001C109.956 4.66287 109.188 3.79144 108.069 3.43573L108.066 3.43715ZM107.316 23.6057H99.6167C99.3398 23.6057 99.2036 23.4814 99.2036 23.2329C99.2036 23.1972 99.2124 23.1614 99.23 23.1257C99.2461 23.0914 99.2549 23.0372 99.2549 22.9657L102.873 10.8014C103.08 10.1614 103.269 9.84144 103.441 9.84144C103.614 9.84144 103.734 9.9043 103.803 10.0286C103.872 10.1529 103.958 10.4114 104.062 10.8014L107.679 22.9657C107.679 23.0372 107.688 23.0914 107.706 23.1257C107.722 23.1614 107.732 23.1972 107.732 23.2329C107.732 23.4829 107.594 23.6057 107.319 23.6057H107.316Z" fill="#7A7879"/>
    <path d="M149.483 2.9043H131.396C130.329 2.9043 129.337 3.05573 128.426 3.35715C127.512 3.66001 126.721 4.1043 126.048 4.69144C125.376 5.27858 124.852 6.01715 124.472 6.90573C124.093 7.79573 123.904 8.8443 123.904 10.0529V40.6257C123.904 40.9814 124.075 41.16 124.421 41.16H130.881C131.225 41.16 131.398 40.9829 131.398 40.6257V26.0072C131.398 25.6157 131.569 25.42 131.915 25.42H147.779C148.124 25.42 148.296 25.2429 148.296 24.8872V19.0172C148.296 18.6614 148.124 18.4843 147.779 18.4843H131.915C131.571 18.4843 131.398 18.2886 131.398 17.8972V12.8286C131.398 11.8686 131.578 11.13 131.94 10.6143C132.302 10.0986 132.948 9.84001 133.878 9.84001H149.484C149.829 9.84001 150.001 9.66287 150.001 9.30715V3.43715C150.001 3.08144 149.829 2.9043 149.484 2.9043H149.483Z" fill="#7A7879"/>
    <path d="M31.3989 8.41988C33.5522 8.41988 35.3716 6.67131 35.3716 4.60274C35.3716 2.53417 33.5889 0.841309 31.3989 0.841309C29.209 0.841309 27.4849 2.56417 27.4849 4.60274C27.4849 6.64131 29.2778 8.41988 31.3989 8.41988Z" fill="#7A7879"/>
    <path d="M44.0303 31.1769C44.0332 31.0298 44.0347 30.8841 44.0347 30.7412H44.02C43.9951 29.9098 43.9512 29.3455 43.9482 29.3455C43.9585 29.1183 43.9673 28.8912 43.9673 28.6555V19.9298C43.9673 17.2112 42.9917 14.9141 41.061 13.0941C38.7993 11.0098 35.5488 9.95264 31.3989 9.95264C24.0117 9.95264 19.2393 13.8684 19.2393 19.9298C19.2393 23.2469 19.8779 25.6069 21.2036 27.1598C22.8149 28.9826 25.6538 29.9055 29.6426 29.9055C31.8779 29.9055 34.1294 29.9812 36.3604 29.8583C36.4834 29.8512 36.6138 29.8469 36.7192 29.9083C36.8657 29.9941 36.8979 30.3483 36.8892 30.7398H36.8071C36.8071 30.7512 36.8057 30.7655 36.8057 30.7755C36.7881 31.2826 36.7515 31.7912 36.7456 32.2998C36.7427 32.5726 36.7397 32.8498 36.646 33.1069C35.9868 34.9326 33.0762 34.5941 31.5718 34.5941H12.1611C8.80811 34.5941 7.24658 33.0883 7.24658 29.8583V18.5326L0 24.5712V30.4312C0 36.8083 4.58203 41.0926 11.3994 41.0926H32.3335C36.0234 41.0926 38.811 40.4426 40.6274 39.1598C41.7686 38.3412 42.6182 37.2412 43.1763 35.8712C43.7593 35.0026 43.9644 33.2412 44.0186 31.6283H44.0347C44.0347 31.4741 44.0317 31.3226 44.0303 31.1784V31.1769ZM36.6636 23.6412H30.873C27.8467 23.6412 27.123 23.2598 27.0469 23.2069C26.915 23.0784 26.4844 22.4726 26.4844 20.1012C26.4844 18.3998 27.0425 16.4484 31.3989 16.4484C36.0659 16.4484 36.6636 18.3998 36.6636 20.1012V23.6398V23.6412Z" fill="#7A7879"/>
    <path d="M72.2197 41C72.1465 40.8928 72.0908 40.8043 72.0557 40.7328L68.5195 34.5814H57.4058C56.1987 34.5071 55.7109 33.9671 55.7109 32.7114V2.86426H48.4072V32.8843C48.4072 37.9471 51.7002 41.0928 57 41.0928H72.3237C72.2842 41.0685 72.249 41.0414 72.2212 41H72.2197Z" fill="#7A7879"/>
    <path d="M81.0278 40.4657L70.4136 22.7514C70.3403 22.6457 70.2393 22.4671 70.1118 22.2185C69.9844 21.97 69.9199 21.7914 69.9199 21.6857C69.9199 21.6143 70.002 21.4371 70.166 21.1514C70.3301 20.8671 70.4487 20.69 70.522 20.6171L80.6982 3.59712C80.8433 3.34855 80.8799 3.16998 80.8081 3.06283C80.7349 2.95712 80.644 2.90283 80.5342 2.90283H72.2183C72.0718 2.90283 71.9619 2.95569 71.8901 3.06283C71.8169 3.16998 71.7612 3.25855 71.7261 3.32997L63.4644 17.8957C63.0996 18.5714 62.8081 19.1228 62.5884 19.55C62.3701 19.9771 62.2061 20.3414 62.0962 20.6443C61.9863 20.9471 61.9131 21.1785 61.8779 21.3385C61.8413 21.4985 61.8237 21.65 61.8237 21.7914C61.8237 22.61 62.3701 23.9443 63.4644 25.7928L68.5166 34.5814L72.0527 40.7328C72.0894 40.8043 72.1436 40.8928 72.2168 41C72.2446 41.04 72.2798 41.0685 72.3193 41.0928C72.3384 41.1043 72.3574 41.1171 72.3779 41.1257H80.9912C81.044 41.1 81.0923 41.0614 81.1333 41C81.2065 40.8928 81.1685 40.7157 81.0234 40.4657H81.0278Z" fill="#1DBF73"/>
  </g>
  <defs>
    <clipPath id="clip0_11_368">
      <rect width="150" height="42" fill="white"/>
    </clipPath>
  </defs>
</svg>