<svg xmlns="http://www.w3.org/2000/svg" width="28" height="30" viewBox="0 0 28 30" fill="none">
  <path d="M27.1907 21.9667C26.4102 20.6223 25.2501 16.8184 25.2501 11.8501C25.2501 8.86641 24.0648 6.00493 21.955 3.89515C19.8452 1.78536 16.9838 0.600098 14.0001 0.600098C11.0164 0.600098 8.15491 1.78536 6.04513 3.89515C3.93534 6.00493 2.75008 8.86641 2.75008 11.8501C2.75008 16.8198 1.58852 20.6223 0.808048 21.9667C0.608741 22.3084 0.50308 22.6967 0.501722 23.0924C0.500364 23.488 0.603356 23.877 0.800312 24.2202C0.997267 24.5633 1.28122 24.8484 1.62354 25.0468C1.96586 25.2452 2.35443 25.3498 2.75008 25.3501H8.48899C8.74854 26.6202 9.4388 27.7616 10.443 28.5813C11.4472 29.4011 12.7038 29.8488 14.0001 29.8488C15.2964 29.8488 16.5529 29.4011 17.5571 28.5813C18.5614 27.7616 19.2516 26.6202 19.5112 25.3501H25.2501C25.6456 25.3496 26.034 25.2448 26.3761 25.0463C26.7182 24.8478 27.002 24.5627 27.1988 24.2196C27.3956 23.8765 27.4984 23.4875 27.497 23.092C27.4956 22.6965 27.39 22.3083 27.1907 21.9667ZM14.0001 27.6001C13.3023 27.5999 12.6218 27.3834 12.0521 26.9805C11.4825 26.5775 11.0517 26.0079 10.8191 25.3501H17.181C16.9484 26.0079 16.5177 26.5775 15.948 26.9805C15.3784 27.3834 14.6978 27.5999 14.0001 27.6001ZM2.75008 23.1001C3.83289 21.2382 5.00008 16.9238 5.00008 11.8501C5.00008 9.46315 5.94829 7.17396 7.63612 5.48614C9.32395 3.79831 11.6131 2.8501 14.0001 2.8501C16.387 2.8501 18.6762 3.79831 20.364 5.48614C22.0519 7.17396 23.0001 9.46315 23.0001 11.8501C23.0001 16.9196 24.1645 21.234 25.2501 23.1001H2.75008Z" fill="#7A7879"/>
</svg>