<svg xmlns="http://www.w3.org/2000/svg" width="34" height="34" viewBox="0 0 34 34" fill="none">
  <path d="M18.5231 16.9356C18.5231 17.2496 18.43 17.5566 18.2555 17.8177C18.081 18.0788 17.8331 18.2823 17.543 18.4024C17.2528 18.5226 16.9336 18.554 16.6256 18.4928C16.3176 18.4315 16.0347 18.2803 15.8127 18.0583C15.5907 17.8362 15.4394 17.5533 15.3782 17.2453C15.3169 16.9373 15.3484 16.6181 15.4685 16.328C15.5887 16.0379 15.7922 15.7899 16.0533 15.6155C16.3144 15.441 16.6214 15.3479 16.9354 15.3479C17.3565 15.3479 17.7603 15.5152 18.058 15.8129C18.3558 16.1107 18.5231 16.5145 18.5231 16.9356ZM11.1138 15.3479C10.7998 15.3479 10.4928 15.441 10.2317 15.6155C9.97062 15.7899 9.76712 16.0379 9.64696 16.328C9.52679 16.6181 9.49534 16.9373 9.55661 17.2453C9.61787 17.5533 9.76908 17.8362 9.99113 18.0583C10.2132 18.2803 10.4961 18.4315 10.8041 18.4928C11.112 18.554 11.4313 18.5226 11.7214 18.4024C12.0115 18.2823 12.2595 18.0788 12.4339 17.8177C12.6084 17.5566 12.7015 17.2496 12.7015 16.9356C12.7015 16.5145 12.5342 16.1107 12.2365 15.8129C11.9387 15.5152 11.5349 15.3479 11.1138 15.3479ZM22.7569 15.3479C22.4429 15.3479 22.136 15.441 21.8749 15.6155C21.6138 15.7899 21.4103 16.0379 21.2901 16.328C21.1699 16.6181 21.1385 16.9373 21.1998 17.2453C21.261 17.5533 21.4122 17.8362 21.6343 18.0583C21.8563 18.2803 22.1392 18.4315 22.4472 18.4928C22.7552 18.554 23.0744 18.5226 23.3645 18.4024C23.6546 18.2823 23.9026 18.0788 24.0771 17.8177C24.2515 17.5566 24.3446 17.2496 24.3446 16.9356C24.3446 16.5145 24.1774 16.1107 23.8796 15.8129C23.5819 15.5152 23.178 15.3479 22.7569 15.3479ZM30.6955 16.9356C30.696 19.3112 30.0814 21.6465 28.9116 23.7142C27.7418 25.7819 26.0567 27.5115 24.0201 28.7346C21.9835 29.9578 19.665 30.6328 17.2901 30.6941C14.9153 30.7553 12.565 30.2007 10.4681 29.0842L5.96303 30.5858C5.59004 30.7102 5.18977 30.7283 4.80709 30.638C4.42441 30.5477 4.07444 30.3526 3.79642 30.0745C3.51839 29.7965 3.32329 29.4465 3.23298 29.0639C3.14267 28.6812 3.16072 28.2809 3.28511 27.9079L4.78681 23.4028C3.80528 21.5574 3.25706 19.5127 3.18376 17.4238C3.11046 15.3349 3.51401 13.2567 4.36378 11.3471C5.21355 9.4374 6.4872 7.74643 8.08806 6.4025C9.68892 5.05857 11.5749 4.09701 13.6029 3.59079C15.6308 3.08458 17.7475 3.04702 19.7921 3.48097C21.8368 3.91491 23.7557 4.80896 25.4032 6.09525C27.0508 7.38154 28.3836 9.02626 29.3006 10.9046C30.2176 12.7829 30.6946 14.8454 30.6955 16.9356ZM28.5785 16.9356C28.578 15.1496 28.1666 13.3876 27.3762 11.7861C26.5858 10.1845 25.4375 8.78623 24.0202 7.69944C22.603 6.61266 20.9547 5.86649 19.2028 5.51867C17.451 5.17086 15.6427 5.23071 13.9177 5.6936C12.1928 6.15649 10.5974 7.01002 9.25507 8.18814C7.91275 9.36626 6.85945 10.8374 6.17666 12.4877C5.49387 14.1381 5.1999 15.9233 5.31749 17.7055C5.43508 19.4876 5.96108 21.2188 6.85479 22.7651C6.9298 22.8949 6.97637 23.0392 6.99143 23.1884C7.00648 23.3375 6.98967 23.4882 6.94211 23.6304L5.29223 28.5787L10.2406 26.9288C10.3483 26.8921 10.4614 26.8733 10.5753 26.8733C10.7612 26.8736 10.9437 26.9229 11.1045 27.0162C12.8746 28.0403 14.8831 28.5801 16.928 28.5814C18.973 28.5827 20.9822 28.0454 22.7535 27.0235C24.5248 26.0017 25.9957 24.5313 27.0183 22.7604C28.0409 20.9895 28.579 18.9805 28.5785 16.9356Z" fill="#7A7879"/>
</svg>